<svg width="375" height="315" viewBox="0 0 375 315" fill="none" xmlns="http://www.w3.org/2000/svg">
<g filter="url(#filter0_f_132_1151)">
<rect x="40" y="113" width="295" height="152" rx="20" fill="#240F4F"/>
</g>
<g clip-path="url(#clip0_132_1151)">
<rect x="24" width="327" height="295" fill="url(#paint0_linear_132_1151)"/>
<g style="mix-blend-mode:soft-light" opacity="0.2">
<path opacity="0.25" d="M244.056 295C321.288 295 383.896 280.435 383.896 262.467C383.896 244.5 321.288 229.934 244.056 229.934C166.824 229.934 104.215 244.5 104.215 262.467C104.215 280.435 166.824 295 244.056 295Z" fill="#042030"/>
<path d="M353.574 105.465L244.056 142.883L134.426 105.465L82 181.634L244.056 237.04L406 181.634L353.574 105.465Z" fill="#4E2999"/>
<path opacity="0.45" d="M101.105 178.525L235.503 229.934L189.297 184.188C189.297 184.188 113.434 165.867 101.105 178.525Z" fill="#240F4F"/>
<path opacity="0.45" d="M387.007 178.525L252.608 229.934L298.815 184.188C298.703 184.188 374.566 165.867 387.007 178.525Z" fill="#240F4F"/>
<path d="M244.056 237.04L82 181.634V188.852L244.056 244.257L406 188.852V181.634L244.056 237.04Z" fill="#994EF8"/>
<path d="M157.752 270.35L176.523 221.162L236.947 241.815L157.752 270.35Z" fill="#3B1E77"/>
<path opacity="0.45" d="M162.972 256.138L236.947 241.815L176.523 221.162L162.972 256.138Z" fill="#3B1E77"/>
<path d="M244.056 239.261L157.752 270.35L164.194 277.124L244.056 248.699L323.806 277.124L330.359 270.35L244.056 239.261Z" fill="#994EF8"/>
<path d="M330.359 270.35L311.477 221.162L251.053 241.815L330.359 270.35Z" fill="#3B1E77"/>
<path opacity="0.45" d="M325.028 256.138L251.053 241.815L311.477 221.162L325.028 256.138Z" fill="#3B1E77"/>
<path d="M244.055 248.699C247.307 248.699 249.942 246.064 249.942 242.814C249.942 239.564 247.307 236.929 244.055 236.929C240.804 236.929 238.169 239.564 238.169 242.814C238.169 246.064 240.804 248.699 244.055 248.699Z" fill="white" fill-opacity="0.5"/>
<path d="M348.909 105.465L244.056 157.651L139.203 105.465C134.427 111.794 95.9952 175.861 95.9952 175.861C96.4395 175.861 96.7728 175.972 97.217 175.972C193.628 185.632 220.397 215.944 229.283 223.272C238.169 230.711 244.167 229.934 244.167 229.934C244.167 229.934 250.165 230.711 259.05 223.272C267.936 215.944 294.705 185.632 391.116 175.972C391.561 175.972 391.894 175.861 392.338 175.861C392.116 175.861 353.574 111.905 348.909 105.465Z" fill="#F5B304"/>
<path d="M392.116 175.861C391.672 175.861 391.338 175.972 390.894 175.972C294.483 185.632 267.714 215.944 258.828 223.272C249.942 230.711 243.944 229.934 243.944 229.934C243.944 229.934 237.947 230.711 229.061 223.272C220.175 215.944 193.406 185.632 96.9949 175.972C96.5506 175.972 96.2173 175.861 95.7731 175.861C94.9955 177.082 95.7731 177.97 95.7731 177.97C193.184 187.408 219.064 217.831 227.95 225.271C236.836 232.599 243.833 232.044 243.833 232.044C243.833 232.044 250.831 232.599 259.717 225.271C268.603 217.942 294.483 187.519 391.894 177.97C392.116 177.97 392.893 177.082 392.116 175.861Z" fill="#994EF8"/>
<path d="M344.91 99.3581C291.262 86.4782 243.944 130.559 243.944 130.559C243.944 130.559 196.627 86.4782 142.979 99.3581C142.979 99.3581 127.762 122.675 106.769 162.314C106.769 162.314 212.4 174.195 243.944 218.498C275.489 174.195 381.12 162.314 381.12 162.314C360.127 122.675 344.91 99.3581 344.91 99.3581Z" fill="#F5EFFB"/>
<path d="M381.12 162.314C381.12 162.314 275.489 174.195 243.944 218.498C212.511 174.195 106.88 162.314 106.88 162.314C106.88 162.314 106.88 165.867 100.993 172.863C100.993 172.863 196.85 179.747 231.726 219.497C239.946 228.824 243.944 227.713 243.944 227.713C243.944 227.713 248.054 228.824 256.163 219.497C290.928 179.747 386.896 172.863 386.896 172.863C381.12 165.756 381.12 162.314 381.12 162.314Z" fill="#DFCBF4"/>
<path d="M338.912 104.022C338.912 104.022 298.814 93.8064 243.944 136.332C189.185 93.9174 148.977 104.022 148.977 104.022L121.875 156.652C204.291 162.314 243.944 203.952 243.944 203.952C243.944 203.952 283.597 162.314 366.014 156.652L338.912 104.022ZM244.056 198.956C244.056 198.956 206.957 160.982 128.317 153.543L151.087 106.242C151.087 106.242 190.518 98.5809 244.056 138.775C297.593 98.5809 337.024 106.242 337.024 106.242L359.794 153.543C281.154 160.982 244.056 198.956 244.056 198.956Z" fill="#863ED5"/>
<path opacity="0.2" d="M254.163 175.965C268.973 165.046 315.253 140.885 346.354 144.216" stroke="#863ED5" stroke-width="3" stroke-linecap="round"/>
<path opacity="0.2" d="M254.163 145.326C267.307 135.038 301.48 114.882 333.025 116.555" stroke="#863ED5" stroke-width="3" stroke-linecap="round"/>
<path opacity="0.2" d="M254.163 160.871C268.418 149.792 305.479 128.084 339.689 129.887" stroke="#863ED5" stroke-width="3" stroke-linecap="round"/>
<path opacity="0.2" d="M235.281 175.965C220.471 165.046 174.191 140.885 143.09 144.216" stroke="#863ED5" stroke-width="3" stroke-linecap="round"/>
<path opacity="0.2" d="M235.281 145.326C222.137 135.038 187.964 114.882 156.419 116.555" stroke="#863ED5" stroke-width="3" stroke-linecap="round"/>
<path opacity="0.2" d="M235.281 160.871C221.026 149.792 183.965 128.084 149.755 129.887" stroke="#863ED5" stroke-width="3" stroke-linecap="round"/>
<path d="M244.056 130.559C244.056 130.559 245.166 126.672 247.277 127.783C247.277 127.783 245.944 190.739 248.165 215.278C248.721 221.384 254.052 229.712 256.162 232.821H253.386L252.608 235.375C252.608 235.375 244.389 221.496 244.056 216.055C242.389 191.627 243.278 136.443 244.056 130.559Z" fill="#54DAF5"/>
</g>
</g>
<defs>
<filter id="filter0_f_132_1151" x="-10" y="63" width="395" height="252" filterUnits="userSpaceOnUse" color-interpolation-filters="sRGB">
<feFlood flood-opacity="0" result="BackgroundImageFix"/>
<feBlend mode="normal" in="SourceGraphic" in2="BackgroundImageFix" result="shape"/>
<feGaussianBlur stdDeviation="25" result="effect1_foregroundBlur_132_1151"/>
</filter>
<linearGradient id="paint0_linear_132_1151" x1="24" y1="0" x2="317.443" y2="325.274" gradientUnits="userSpaceOnUse">
<stop stop-color="#DF98FA"/>
<stop offset="1" stop-color="#9055FF"/>
</linearGradient>
<clipPath id="clip0_132_1151">
<rect x="24" width="327" height="257" rx="20" fill="white"/>
</clipPath>
</defs>
</svg>
